<svg width="24" height="24" xmlns="http://www.w3.org/2000/svg" fill="none">

 <g>
  <title>Layer 1</title>
  <path id="svg_1" stroke-linejoin="round" stroke-linecap="round" stroke-miterlimit="10" stroke-width="2" stroke="#000" d="m14.3201,19.07c0,0.61 -0.4001,1.41 -0.9101,1.72l-1.4099,0.91c-1.31,0.81 -3.13004,-0.1 -3.13004,-1.72l0,-5.35c0,-0.71 -0.4,-1.62 -0.81,-2.12l-3.84003,-4.04c-0.51,-0.51 -0.90997,-1.40999 -0.90997,-2.01999l0,-2.32001c0,-1.21 0.91002,-2.11999 2.02002,-2.11999l13.33992,0c1.11,0 2.0201,0.90999 2.0201,2.01999l0,2.22c0,0.81 -0.51,1.82001 -1.01,2.32001"/>
  <path stroke="#000" id="svg_2" stroke-linejoin="round" stroke-linecap="round" stroke-width="2" d="m16.07,16.52c1.7673,0 3.2,-1.4327 3.2,-3.2c0,-1.7673 -1.4327,-3.2 -3.2,-3.2c-1.7673,0 -3.2,1.4327 -3.2,3.2c0,1.7673 1.4327,3.2 3.2,3.2z"/>
  <path stroke="#000" id="svg_3" stroke-linejoin="round" stroke-linecap="round" stroke-width="2" d="m20.91651,18.16651l-2.04651,-2.04651"/>
 </g>
</svg>