<?xml version="1.0" standalone="no"?>
<!DOCTYPE svg PUBLIC "-//W3C//DTD SVG 20010904//EN" "http://www.w3.org/TR/2001/REC-SVG-20010904/DTD/svg10.dtd">
<svg version="1.0" xmlns="http://www.w3.org/2000/svg"
    width="512.000000pt" height="512.000000pt" viewBox="0 0 512.000000 512.000000"
    preserveAspectRatio="xMidYMid meet">

    <g transform="translate(0.000000,512.000000) scale(0.100000,-0.100000)"
        fill="#000000" stroke="none">
        <path d="M2405 4576 c-188 -38 -309 -109 -490 -291 -164 -163 -1457 -1608
-1472 -1644 -23 -55 -14 -150 20 -197 41 -59 89 -87 157 -92 80 -6 125 12 182
71 l48 50 0 -504 c0 -737 15 -910 91 -1061 121 -241 324 -400 579 -455 79 -17
153 -18 1040 -18 886 0 961 1 1040 18 163 35 269 91 392 206 90 84 145 160
193 265 72 157 85 314 85 1045 l0 505 46 -48 c54 -57 96 -76 167 -76 69 0 129
31 170 88 25 34 32 55 35 105 3 41 -1 75 -10 97 -8 19 -103 133 -211 254
l-197 218 0 475 c0 330 -4 488 -12 521 -16 64 -86 134 -151 151 -93 23 -187
-16 -234 -97 l-28 -47 -5 -259 -5 -260 -270 300 c-475 526 -558 597 -770 659
-112 33 -283 42 -390 21z m318 -449 c83 -38 212 -169 702 -712 l415 -460 -3
-870 c-4 -923 -4 -923 -51 -1014 -25 -48 -90 -115 -146 -151 -101 -65 -98 -65
-1080 -65 -982 0 -979 0 -1080 65 -56 36 -121 103 -146 151 -47 91 -47 91 -51
1014 l-3 870 411 455 c424 470 586 641 652 687 68 47 132 64 232 60 72 -2 102
-8 148 -30z" />
    </g>
</svg>